<?xml version="1.0" encoding="UTF-8" standalone="no"?>
<!DOCTYPE svg PUBLIC "-//W3C//DTD SVG 1.1//EN"
 "http://www.w3.org/Graphics/SVG/1.1/DTD/svg11.dtd">
<!-- Generated by graphviz version 2.43.0 (0)
 -->
<!-- Title: unl_11 Pages: 1 -->
<svg width="508pt" height="392pt"
 viewBox="0.00 0.00 507.94 392.00" xmlns="http://www.w3.org/2000/svg" xmlns:xlink="http://www.w3.org/1999/xlink">
<g id="graph0" class="graph" transform="scale(1 1) rotate(0) translate(4 388)">
<title>unl_11</title>
<polygon fill="white" stroke="transparent" points="-4,4 -4,-388 503.94,-388 503.94,4 -4,4"/>
<!-- e -->
<g id="node1" class="node">
<title>e</title>
<ellipse fill="none" stroke="black" cx="224.39" cy="-366" rx="69.59" ry="18"/>
<text text-anchor="middle" x="224.39" y="-362.3" font-family="Times,serif" font-size="14.00">be.@present</text>
</g>
<!-- b -->
<g id="node2" class="node">
<title>b</title>
<ellipse fill="none" stroke="black" cx="62.39" cy="-279" rx="62.29" ry="18"/>
<text text-anchor="middle" x="62.39" y="-275.3" font-family="Times,serif" font-size="14.00">big.@entry</text>
</g>
<!-- e&#45;&gt;b -->
<g id="edge1" class="edge">
<title>e&#45;&gt;b</title>
<path fill="none" stroke="black" d="M195.06,-349.61C168.48,-335.66 129.17,-315.04 100.24,-299.86"/>
<polygon fill="black" stroke="black" points="101.72,-296.68 91.24,-295.14 98.47,-302.88 101.72,-296.68"/>
<text text-anchor="middle" x="163.39" y="-318.8" font-family="Times,serif" font-size="14.00">obj</text>
</g>
<!-- d -->
<g id="node3" class="node">
<title>d</title>
<ellipse fill="none" stroke="black" cx="224.39" cy="-279" rx="81.79" ry="18"/>
<text text-anchor="middle" x="224.39" y="-275.3" font-family="Times,serif" font-size="14.00">desk.@sg.@def</text>
</g>
<!-- e&#45;&gt;d -->
<g id="edge2" class="edge">
<title>e&#45;&gt;d</title>
<path fill="none" stroke="black" d="M224.39,-347.8C224.39,-336.16 224.39,-320.55 224.39,-307.24"/>
<polygon fill="black" stroke="black" points="227.89,-307.18 224.39,-297.18 220.89,-307.18 227.89,-307.18"/>
<text text-anchor="middle" x="235.39" y="-318.8" font-family="Times,serif" font-size="14.00">aoj</text>
</g>
<!-- g -->
<g id="node4" class="node">
<title>g</title>
<ellipse fill="none" stroke="black" cx="404.39" cy="-279" rx="80.69" ry="18"/>
<text text-anchor="middle" x="404.39" y="-275.3" font-family="Times,serif" font-size="14.00">have.@present</text>
</g>
<!-- e&#45;&gt;g -->
<g id="edge3" class="edge">
<title>e&#45;&gt;g</title>
<path fill="none" stroke="black" d="M256.57,-349.8C286.12,-335.85 330.08,-315.09 362.38,-299.84"/>
<polygon fill="black" stroke="black" points="364.03,-302.93 371.58,-295.5 361.04,-296.6 364.03,-302.93"/>
<text text-anchor="middle" x="337.89" y="-318.8" font-family="Times,serif" font-size="14.00">and</text>
</g>
<!-- i -->
<g id="node5" class="node">
<title>i</title>
<ellipse fill="none" stroke="black" cx="404.39" cy="-192" rx="95.58" ry="18"/>
<text text-anchor="middle" x="404.39" y="-188.3" font-family="Times,serif" font-size="14.00">space.@sg.@indef</text>
</g>
<!-- g&#45;&gt;i -->
<g id="edge4" class="edge">
<title>g&#45;&gt;i</title>
<path fill="none" stroke="black" d="M404.39,-260.8C404.39,-249.16 404.39,-233.55 404.39,-220.24"/>
<polygon fill="black" stroke="black" points="407.89,-220.18 404.39,-210.18 400.89,-220.18 407.89,-220.18"/>
<text text-anchor="middle" x="415.39" y="-231.8" font-family="Times,serif" font-size="14.00">obj</text>
</g>
<!-- k -->
<g id="node6" class="node">
<title>k</title>
<ellipse fill="none" stroke="black" cx="404.39" cy="-105" rx="83.39" ry="18"/>
<text text-anchor="middle" x="404.39" y="-101.3" font-family="Times,serif" font-size="14.00">thing.@pl.@def</text>
</g>
<!-- i&#45;&gt;k -->
<g id="edge5" class="edge">
<title>i&#45;&gt;k</title>
<path fill="none" stroke="black" d="M404.39,-173.8C404.39,-162.16 404.39,-146.55 404.39,-133.24"/>
<polygon fill="black" stroke="black" points="407.89,-133.18 404.39,-123.18 400.89,-133.18 407.89,-133.18"/>
<text text-anchor="middle" x="416.89" y="-144.8" font-family="Times,serif" font-size="14.00">pur</text>
</g>
<!-- l -->
<g id="node7" class="node">
<title>l</title>
<ellipse fill="none" stroke="black" cx="404.39" cy="-18" rx="27" ry="18"/>
<text text-anchor="middle" x="404.39" y="-14.3" font-family="Times,serif" font-size="14.00">all</text>
</g>
<!-- k&#45;&gt;l -->
<g id="edge6" class="edge">
<title>k&#45;&gt;l</title>
<path fill="none" stroke="black" d="M404.39,-86.8C404.39,-75.16 404.39,-59.55 404.39,-46.24"/>
<polygon fill="black" stroke="black" points="407.89,-46.18 404.39,-36.18 400.89,-46.18 407.89,-46.18"/>
<text text-anchor="middle" x="419.89" y="-57.8" font-family="Times,serif" font-size="14.00">mod</text>
</g>
</g>
</svg>
