<?xml version="1.0" encoding="UTF-8" standalone="no"?>
<!DOCTYPE svg PUBLIC "-//W3C//DTD SVG 1.1//EN"
 "http://www.w3.org/Graphics/SVG/1.1/DTD/svg11.dtd">
<!-- Generated by graphviz version 2.43.0 (0)
 -->
<!-- Title: unl_7 Pages: 1 -->
<svg width="773pt" height="305pt"
 viewBox="0.00 0.00 772.63 305.00" xmlns="http://www.w3.org/2000/svg" xmlns:xlink="http://www.w3.org/1999/xlink">
<g id="graph0" class="graph" transform="scale(1 1) rotate(0) translate(4 301)">
<title>unl_7</title>
<polygon fill="white" stroke="transparent" points="-4,4 -4,-301 768.63,-301 768.63,4 -4,4"/>
<!-- c -->
<g id="node1" class="node">
<title>c</title>
<ellipse fill="none" stroke="black" cx="99.34" cy="-279" rx="69.59" ry="18"/>
<text text-anchor="middle" x="99.34" y="-275.3" font-family="Times,serif" font-size="14.00">be.@present</text>
</g>
<!-- b -->
<g id="node2" class="node">
<title>b</title>
<ellipse fill="none" stroke="black" cx="77.34" cy="-192" rx="77.19" ry="18"/>
<text text-anchor="middle" x="77.34" y="-188.3" font-family="Times,serif" font-size="14.00">bed.@sg.@def</text>
</g>
<!-- c&#45;&gt;b -->
<g id="edge1" class="edge">
<title>c&#45;&gt;b</title>
<path fill="none" stroke="black" d="M94.89,-260.8C91.88,-249.16 87.84,-233.55 84.39,-220.24"/>
<polygon fill="black" stroke="black" points="87.68,-218.98 81.79,-210.18 80.91,-220.73 87.68,-218.98"/>
<text text-anchor="middle" x="101.34" y="-231.8" font-family="Times,serif" font-size="14.00">aoj</text>
</g>
<!-- g -->
<g id="node3" class="node">
<title>g</title>
<ellipse fill="none" stroke="black" cx="276.34" cy="-192" rx="103.18" ry="18"/>
<text text-anchor="middle" x="276.34" y="-188.3" font-family="Times,serif" font-size="14.00">comfortable.@entry</text>
</g>
<!-- c&#45;&gt;g -->
<g id="edge2" class="edge">
<title>c&#45;&gt;g</title>
<path fill="none" stroke="black" d="M130.99,-262.8C159.68,-249.03 202.19,-228.61 233.84,-213.41"/>
<polygon fill="black" stroke="black" points="235.37,-216.56 242.87,-209.08 232.34,-210.25 235.37,-216.56"/>
<text text-anchor="middle" x="210.34" y="-231.8" font-family="Times,serif" font-size="14.00">obj</text>
</g>
<!-- f -->
<g id="node4" class="node">
<title>f</title>
<ellipse fill="none" stroke="black" cx="234.34" cy="-105" rx="31.4" ry="18"/>
<text text-anchor="middle" x="234.34" y="-101.3" font-family="Times,serif" font-size="14.00">very</text>
</g>
<!-- g&#45;&gt;f -->
<g id="edge3" class="edge">
<title>g&#45;&gt;f</title>
<path fill="none" stroke="black" d="M267.84,-173.8C261.9,-161.78 253.86,-145.51 247.15,-131.92"/>
<polygon fill="black" stroke="black" points="250.11,-130.01 242.54,-122.6 243.84,-133.11 250.11,-130.01"/>
<text text-anchor="middle" x="273.84" y="-144.8" font-family="Times,serif" font-size="14.00">man</text>
</g>
<!-- k -->
<g id="node5" class="node">
<title>k</title>
<ellipse fill="none" stroke="black" cx="351.34" cy="-105" rx="67.69" ry="18"/>
<text text-anchor="middle" x="351.34" y="-101.3" font-family="Times,serif" font-size="14.00">place.@past</text>
</g>
<!-- g&#45;&gt;k -->
<g id="edge4" class="edge">
<title>g&#45;&gt;k</title>
<path fill="none" stroke="black" d="M291.52,-173.8C302.54,-161.31 317.61,-144.24 329.86,-130.35"/>
<polygon fill="black" stroke="black" points="332.71,-132.41 336.7,-122.6 327.46,-127.78 332.71,-132.41"/>
<text text-anchor="middle" x="331.84" y="-144.8" font-family="Times,serif" font-size="14.00">and</text>
</g>
<!-- j -->
<g id="node6" class="node">
<title>j</title>
<ellipse fill="none" stroke="black" cx="317.34" cy="-18" rx="39.79" ry="18"/>
<text text-anchor="middle" x="317.34" y="-14.3" font-family="Times,serif" font-size="14.00">where</text>
</g>
<!-- k&#45;&gt;j -->
<g id="edge5" class="edge">
<title>k&#45;&gt;j</title>
<path fill="none" stroke="black" d="M344.46,-86.8C339.68,-74.85 333.23,-58.72 327.82,-45.18"/>
<polygon fill="black" stroke="black" points="331.06,-43.87 324.1,-35.89 324.56,-46.47 331.06,-43.87"/>
<text text-anchor="middle" x="348.34" y="-57.8" font-family="Times,serif" font-size="14.00">plc</text>
</g>
<!-- n -->
<g id="node7" class="node">
<title>n</title>
<ellipse fill="none" stroke="black" cx="455.34" cy="-18" rx="80.69" ry="18"/>
<text text-anchor="middle" x="455.34" y="-14.3" font-family="Times,serif" font-size="14.00">toy.@pl.@indef</text>
</g>
<!-- k&#45;&gt;n -->
<g id="edge6" class="edge">
<title>k&#45;&gt;n</title>
<path fill="none" stroke="black" d="M371.4,-87.61C387.12,-74.76 409.21,-56.71 426.78,-42.34"/>
<polygon fill="black" stroke="black" points="429.47,-44.67 435,-35.63 425.04,-39.25 429.47,-44.67"/>
<text text-anchor="middle" x="421.34" y="-57.8" font-family="Times,serif" font-size="14.00">obj</text>
</g>
<!-- o -->
<g id="node8" class="node">
<title>o</title>
<ellipse fill="none" stroke="black" cx="594.34" cy="-105" rx="91.78" ry="18"/>
<text text-anchor="middle" x="594.34" y="-101.3" font-family="Times,serif" font-size="14.00">remind.@present</text>
</g>
<!-- o&#45;&gt;n -->
<g id="edge7" class="edge">
<title>o&#45;&gt;n</title>
<path fill="none" stroke="black" d="M567.54,-87.61C545.58,-74.18 514.32,-55.07 490.38,-40.42"/>
<polygon fill="black" stroke="black" points="491.95,-37.28 481.59,-35.05 488.3,-43.25 491.95,-37.28"/>
<text text-anchor="middle" x="544.34" y="-57.8" font-family="Times,serif" font-size="14.00">obj</text>
</g>
<!-- p -->
<g id="node9" class="node">
<title>p</title>
<ellipse fill="none" stroke="black" cx="659.34" cy="-18" rx="105.08" ry="18"/>
<text text-anchor="middle" x="659.34" y="-14.3" font-family="Times,serif" font-size="14.00">childhood.@sg.@def</text>
</g>
<!-- o&#45;&gt;p -->
<g id="edge8" class="edge">
<title>o&#45;&gt;p</title>
<path fill="none" stroke="black" d="M607.5,-86.8C616.9,-74.51 629.69,-57.77 640.22,-44.01"/>
<polygon fill="black" stroke="black" points="643.14,-45.96 646.43,-35.89 637.58,-41.7 643.14,-45.96"/>
<text text-anchor="middle" x="643.84" y="-57.8" font-family="Times,serif" font-size="14.00">cob</text>
</g>
</g>
</svg>
