<?xml version="1.0" encoding="UTF-8" standalone="no"?>
<!DOCTYPE svg PUBLIC "-//W3C//DTD SVG 1.1//EN"
 "http://www.w3.org/Graphics/SVG/1.1/DTD/svg11.dtd">
<!-- Generated by graphviz version 2.43.0 (0)
 -->
<!-- Title: unl_5 Pages: 1 -->
<svg width="596pt" height="392pt"
 viewBox="0.00 0.00 595.64 392.00" xmlns="http://www.w3.org/2000/svg" xmlns:xlink="http://www.w3.org/1999/xlink">
<g id="graph0" class="graph" transform="scale(1 1) rotate(0) translate(4 388)">
<title>unl_5</title>
<polygon fill="white" stroke="transparent" points="-4,4 -4,-388 591.64,-388 591.64,4 -4,4"/>
<!-- i -->
<g id="node1" class="node">
<title>i</title>
<ellipse fill="none" stroke="black" cx="287.74" cy="-366" rx="109.68" ry="18"/>
<text text-anchor="middle" x="287.74" y="-362.3" font-family="Times,serif" font-size="14.00">see.@entry.@present</text>
</g>
<!-- e -->
<g id="node2" class="node">
<title>e</title>
<ellipse fill="none" stroke="black" cx="141.74" cy="-279" rx="36" ry="18"/>
<text text-anchor="middle" x="141.74" y="-275.3" font-family="Times,serif" font-size="14.00">enter</text>
</g>
<!-- i&#45;&gt;e -->
<g id="edge1" class="edge">
<title>i&#45;&gt;e</title>
<path fill="none" stroke="black" d="M259.25,-348.41C234.56,-334.04 198.9,-313.27 173.34,-298.4"/>
<polygon fill="black" stroke="black" points="174.83,-295.21 164.43,-293.2 171.31,-301.26 174.83,-295.21"/>
<text text-anchor="middle" x="235.24" y="-318.8" font-family="Times,serif" font-size="14.00">tim</text>
</g>
<!-- h -->
<g id="node5" class="node">
<title>h</title>
<ellipse fill="none" stroke="black" cx="287.74" cy="-279" rx="92.08" ry="18"/>
<text text-anchor="middle" x="287.74" y="-275.3" font-family="Times,serif" font-size="14.00">background.@def</text>
</g>
<!-- i&#45;&gt;h -->
<g id="edge4" class="edge">
<title>i&#45;&gt;h</title>
<path fill="none" stroke="black" d="M287.74,-347.8C287.74,-336.16 287.74,-320.55 287.74,-307.24"/>
<polygon fill="black" stroke="black" points="291.24,-307.18 287.74,-297.18 284.24,-307.18 291.24,-307.18"/>
<text text-anchor="middle" x="298.74" y="-318.8" font-family="Times,serif" font-size="14.00">plc</text>
</g>
<!-- k -->
<g id="node6" class="node">
<title>k</title>
<ellipse fill="none" stroke="black" cx="492.74" cy="-279" rx="94.78" ry="18"/>
<text text-anchor="middle" x="492.74" y="-275.3" font-family="Times,serif" font-size="14.00">window.@sg.@def</text>
</g>
<!-- i&#45;&gt;k -->
<g id="edge5" class="edge">
<title>i&#45;&gt;k</title>
<path fill="none" stroke="black" d="M326.3,-349.01C360.16,-334.97 409.51,-314.51 445.69,-299.51"/>
<polygon fill="black" stroke="black" points="447.15,-302.69 455.05,-295.63 444.47,-296.23 447.15,-302.69"/>
<text text-anchor="middle" x="412.74" y="-318.8" font-family="Times,serif" font-size="14.00">obj</text>
</g>
<!-- d -->
<g id="node3" class="node">
<title>d</title>
<ellipse fill="none" stroke="black" cx="61.74" cy="-192" rx="61.99" ry="18"/>
<text text-anchor="middle" x="61.74" y="-188.3" font-family="Times,serif" font-size="14.00">as_soon_as</text>
</g>
<!-- e&#45;&gt;d -->
<g id="edge2" class="edge">
<title>e&#45;&gt;d</title>
<path fill="none" stroke="black" d="M127.07,-262.41C115.2,-249.79 98.26,-231.8 84.61,-217.3"/>
<polygon fill="black" stroke="black" points="86.82,-214.54 77.42,-209.65 81.72,-219.33 86.82,-214.54"/>
<text text-anchor="middle" x="122.24" y="-231.8" font-family="Times,serif" font-size="14.00">man</text>
</g>
<!-- f -->
<g id="node4" class="node">
<title>f</title>
<ellipse fill="none" stroke="black" cx="221.74" cy="-192" rx="80.69" ry="18"/>
<text text-anchor="middle" x="221.74" y="-188.3" font-family="Times,serif" font-size="14.00">door.@sg.@def</text>
</g>
<!-- e&#45;&gt;f -->
<g id="edge3" class="edge">
<title>e&#45;&gt;f</title>
<path fill="none" stroke="black" d="M156.42,-262.41C168.22,-249.87 185.01,-232.03 198.61,-217.58"/>
<polygon fill="black" stroke="black" points="201.49,-219.63 205.79,-209.95 196.39,-214.83 201.49,-219.63"/>
<text text-anchor="middle" x="195.24" y="-231.8" font-family="Times,serif" font-size="14.00">plf</text>
</g>
<!-- m -->
<g id="node7" class="node">
<title>m</title>
<ellipse fill="none" stroke="black" cx="492.74" cy="-192" rx="83.69" ry="18"/>
<text text-anchor="middle" x="492.74" y="-188.3" font-family="Times,serif" font-size="14.00">let_in.@present</text>
</g>
<!-- k&#45;&gt;m -->
<g id="edge6" class="edge">
<title>k&#45;&gt;m</title>
<path fill="none" stroke="black" d="M492.74,-260.8C492.74,-249.16 492.74,-233.55 492.74,-220.24"/>
<polygon fill="black" stroke="black" points="496.24,-220.18 492.74,-210.18 489.24,-220.18 496.24,-220.18"/>
<text text-anchor="middle" x="508.24" y="-231.8" font-family="Times,serif" font-size="14.00">mod</text>
</g>
<!-- o -->
<g id="node8" class="node">
<title>o</title>
<ellipse fill="none" stroke="black" cx="492.74" cy="-105" rx="90.98" ry="18"/>
<text text-anchor="middle" x="492.74" y="-101.3" font-family="Times,serif" font-size="14.00">light.@sg.@indef</text>
</g>
<!-- m&#45;&gt;o -->
<g id="edge7" class="edge">
<title>m&#45;&gt;o</title>
<path fill="none" stroke="black" d="M492.74,-173.8C492.74,-162.16 492.74,-146.55 492.74,-133.24"/>
<polygon fill="black" stroke="black" points="496.24,-133.18 492.74,-123.18 489.24,-133.18 496.24,-133.18"/>
<text text-anchor="middle" x="503.74" y="-144.8" font-family="Times,serif" font-size="14.00">obj</text>
</g>
<!-- p -->
<g id="node9" class="node">
<title>p</title>
<ellipse fill="none" stroke="black" cx="492.74" cy="-18" rx="50.09" ry="18"/>
<text text-anchor="middle" x="492.74" y="-14.3" font-family="Times,serif" font-size="14.00">pleasant</text>
</g>
<!-- o&#45;&gt;p -->
<g id="edge8" class="edge">
<title>o&#45;&gt;p</title>
<path fill="none" stroke="black" d="M492.74,-86.8C492.74,-75.16 492.74,-59.55 492.74,-46.24"/>
<polygon fill="black" stroke="black" points="496.24,-46.18 492.74,-36.18 489.24,-46.18 496.24,-46.18"/>
<text text-anchor="middle" x="508.24" y="-57.8" font-family="Times,serif" font-size="14.00">mod</text>
</g>
</g>
</svg>
