<?xml version="1.0" encoding="UTF-8" standalone="no"?>
<!DOCTYPE svg PUBLIC "-//W3C//DTD SVG 1.1//EN"
 "http://www.w3.org/Graphics/SVG/1.1/DTD/svg11.dtd">
<!-- Generated by graphviz version 2.43.0 (0)
 -->
<!-- Title: unl_4 Pages: 1 -->
<svg width="310pt" height="218pt"
 viewBox="0.00 0.00 310.18 218.00" xmlns="http://www.w3.org/2000/svg" xmlns:xlink="http://www.w3.org/1999/xlink">
<g id="graph0" class="graph" transform="scale(1 1) rotate(0) translate(4 214)">
<title>unl_4</title>
<polygon fill="white" stroke="transparent" points="-4,4 -4,-214 306.18,-214 306.18,4 -4,4"/>
<!-- a -->
<g id="node1" class="node">
<title>a</title>
<ellipse fill="none" stroke="black" cx="124.79" cy="-192" rx="75.29" ry="18"/>
<text text-anchor="middle" x="124.79" y="-188.3" font-family="Times,serif" font-size="14.00">feel.@present</text>
</g>
<!-- e -->
<g id="node2" class="node">
<title>e</title>
<ellipse fill="none" stroke="black" cx="124.79" cy="-105" rx="124.58" ry="18"/>
<text text-anchor="middle" x="124.79" y="-101.3" font-family="Times,serif" font-size="14.00">comfortable.@entry.@sg</text>
</g>
<!-- a&#45;&gt;e -->
<g id="edge1" class="edge">
<title>a&#45;&gt;e</title>
<path fill="none" stroke="black" d="M124.79,-173.8C124.79,-162.16 124.79,-146.55 124.79,-133.24"/>
<polygon fill="black" stroke="black" points="128.29,-133.18 124.79,-123.18 121.29,-133.18 128.29,-133.18"/>
<text text-anchor="middle" x="135.79" y="-144.8" font-family="Times,serif" font-size="14.00">obj</text>
</g>
<!-- d -->
<g id="node3" class="node">
<title>d</title>
<ellipse fill="none" stroke="black" cx="49.79" cy="-18" rx="31.4" ry="18"/>
<text text-anchor="middle" x="49.79" y="-14.3" font-family="Times,serif" font-size="14.00">very</text>
</g>
<!-- e&#45;&gt;d -->
<g id="edge2" class="edge">
<title>e&#45;&gt;d</title>
<path fill="none" stroke="black" d="M109.61,-86.8C98.3,-73.98 82.74,-56.35 70.32,-42.27"/>
<polygon fill="black" stroke="black" points="72.67,-39.64 63.43,-34.46 67.42,-44.27 72.67,-39.64"/>
<text text-anchor="middle" x="107.29" y="-57.8" font-family="Times,serif" font-size="14.00">man</text>
</g>
<!-- f -->
<g id="node4" class="node">
<title>f</title>
<ellipse fill="none" stroke="black" cx="200.79" cy="-18" rx="101.28" ry="18"/>
<text text-anchor="middle" x="200.79" y="-14.3" font-family="Times,serif" font-size="14.00">bedroom.@sg.@def</text>
</g>
<!-- e&#45;&gt;f -->
<g id="edge3" class="edge">
<title>e&#45;&gt;f</title>
<path fill="none" stroke="black" d="M140.17,-86.8C151.26,-74.39 166.4,-57.46 178.78,-43.62"/>
<polygon fill="black" stroke="black" points="181.64,-45.67 185.69,-35.89 176.42,-41.01 181.64,-45.67"/>
<text text-anchor="middle" x="177.79" y="-57.8" font-family="Times,serif" font-size="14.00">plc</text>
</g>
</g>
</svg>
