<?xml version="1.0" encoding="UTF-8" standalone="no"?>
<!DOCTYPE svg PUBLIC "-//W3C//DTD SVG 1.1//EN"
 "http://www.w3.org/Graphics/SVG/1.1/DTD/svg11.dtd">
<!-- Generated by graphviz version 2.43.0 (0)
 -->
<!-- Title: unl_12 Pages: 1 -->
<svg width="619pt" height="305pt"
 viewBox="0.00 0.00 618.73 305.00" xmlns="http://www.w3.org/2000/svg" xmlns:xlink="http://www.w3.org/1999/xlink">
<g id="graph0" class="graph" transform="scale(1 1) rotate(0) translate(4 301)">
<title>unl_12</title>
<polygon fill="white" stroke="transparent" points="-4,4 -4,-301 614.73,-301 614.73,4 -4,4"/>
<!-- h -->
<g id="node1" class="node">
<title>h</title>
<ellipse fill="none" stroke="black" cx="128.34" cy="-192" rx="90.98" ry="18"/>
<text text-anchor="middle" x="128.34" y="-188.3" font-family="Times,serif" font-size="14.00">shelf.@sg.@indef</text>
</g>
<!-- c -->
<g id="node2" class="node">
<title>c</title>
<ellipse fill="none" stroke="black" cx="128.34" cy="-105" rx="38.19" ry="18"/>
<text text-anchor="middle" x="128.34" y="-101.3" font-family="Times,serif" font-size="14.00">above</text>
</g>
<!-- h&#45;&gt;c -->
<g id="edge1" class="edge">
<title>h&#45;&gt;c</title>
<path fill="none" stroke="black" d="M128.34,-173.8C128.34,-162.16 128.34,-146.55 128.34,-133.24"/>
<polygon fill="black" stroke="black" points="131.84,-133.18 128.34,-123.18 124.84,-133.18 131.84,-133.18"/>
<text text-anchor="middle" x="139.34" y="-144.8" font-family="Times,serif" font-size="14.00">plc</text>
</g>
<!-- d -->
<g id="node3" class="node">
<title>d</title>
<ellipse fill="none" stroke="black" cx="128.34" cy="-18" rx="81.79" ry="18"/>
<text text-anchor="middle" x="128.34" y="-14.3" font-family="Times,serif" font-size="14.00">desk.@sg.@def</text>
</g>
<!-- c&#45;&gt;d -->
<g id="edge2" class="edge">
<title>c&#45;&gt;d</title>
<path fill="none" stroke="black" d="M128.34,-86.8C128.34,-75.16 128.34,-59.55 128.34,-46.24"/>
<polygon fill="black" stroke="black" points="131.84,-46.18 128.34,-36.18 124.84,-46.18 131.84,-46.18"/>
<text text-anchor="middle" x="139.34" y="-57.8" font-family="Times,serif" font-size="14.00">obj</text>
</g>
<!-- e -->
<g id="node4" class="node">
<title>e</title>
<ellipse fill="none" stroke="black" cx="116.34" cy="-279" rx="116.18" ry="18"/>
<text text-anchor="middle" x="116.34" y="-275.3" font-family="Times,serif" font-size="14.00">have.@entry.@present</text>
</g>
<!-- e&#45;&gt;h -->
<g id="edge3" class="edge">
<title>e&#45;&gt;h</title>
<path fill="none" stroke="black" d="M118.77,-260.8C120.41,-249.16 122.62,-233.55 124.49,-220.24"/>
<polygon fill="black" stroke="black" points="127.98,-220.57 125.91,-210.18 121.05,-219.59 127.98,-220.57"/>
<text text-anchor="middle" x="134.34" y="-231.8" font-family="Times,serif" font-size="14.00">obj</text>
</g>
<!-- i -->
<g id="node5" class="node">
<title>i</title>
<ellipse fill="none" stroke="black" cx="333.34" cy="-279" rx="82.59" ry="18"/>
<text text-anchor="middle" x="333.34" y="-275.3" font-family="Times,serif" font-size="14.00">store.@present</text>
</g>
<!-- i&#45;&gt;h -->
<g id="edge4" class="edge">
<title>i&#45;&gt;h</title>
<path fill="none" stroke="black" d="M296.69,-262.8C262.75,-248.73 212.12,-227.74 175.24,-212.45"/>
<polygon fill="black" stroke="black" points="176.29,-209.09 165.71,-208.5 173.61,-215.56 176.29,-209.09"/>
<text text-anchor="middle" x="254.34" y="-231.8" font-family="Times,serif" font-size="14.00">plc</text>
</g>
<!-- m -->
<g id="node6" class="node">
<title>m</title>
<ellipse fill="none" stroke="black" cx="333.34" cy="-192" rx="80.69" ry="18"/>
<text text-anchor="middle" x="333.34" y="-188.3" font-family="Times,serif" font-size="14.00">book.@pl.@def</text>
</g>
<!-- i&#45;&gt;m -->
<g id="edge5" class="edge">
<title>i&#45;&gt;m</title>
<path fill="none" stroke="black" d="M333.34,-260.8C333.34,-249.16 333.34,-233.55 333.34,-220.24"/>
<polygon fill="black" stroke="black" points="336.84,-220.18 333.34,-210.18 329.84,-220.18 336.84,-220.18"/>
<text text-anchor="middle" x="344.34" y="-231.8" font-family="Times,serif" font-size="14.00">obj</text>
</g>
<!-- l -->
<g id="node7" class="node">
<title>l</title>
<ellipse fill="none" stroke="black" cx="279.34" cy="-105" rx="27" ry="18"/>
<text text-anchor="middle" x="279.34" y="-101.3" font-family="Times,serif" font-size="14.00">all</text>
</g>
<!-- m&#45;&gt;l -->
<g id="edge6" class="edge">
<title>m&#45;&gt;l</title>
<path fill="none" stroke="black" d="M321.41,-174.05C317.49,-168.36 313.16,-161.95 309.34,-156 304.17,-147.95 298.74,-139.04 293.93,-130.99"/>
<polygon fill="black" stroke="black" points="296.93,-129.19 288.82,-122.37 290.91,-132.75 296.93,-129.19"/>
<text text-anchor="middle" x="324.84" y="-144.8" font-family="Times,serif" font-size="14.00">mod</text>
</g>
<!-- p -->
<g id="node8" class="node">
<title>p</title>
<ellipse fill="none" stroke="black" cx="420.34" cy="-105" rx="95.58" ry="18"/>
<text text-anchor="middle" x="420.34" y="-101.3" font-family="Times,serif" font-size="14.00">object.@pl.@indef</text>
</g>
<!-- m&#45;&gt;p -->
<g id="edge7" class="edge">
<title>m&#45;&gt;p</title>
<path fill="none" stroke="black" d="M350.53,-174.21C363.52,-161.52 381.52,-143.93 395.99,-129.79"/>
<polygon fill="black" stroke="black" points="398.48,-132.25 403.19,-122.76 393.59,-127.24 398.48,-132.25"/>
<text text-anchor="middle" x="395.84" y="-144.8" font-family="Times,serif" font-size="14.00">and</text>
</g>
<!-- q -->
<g id="node9" class="node">
<title>q</title>
<ellipse fill="none" stroke="black" cx="535.34" cy="-192" rx="75.29" ry="18"/>
<text text-anchor="middle" x="535.34" y="-188.3" font-family="Times,serif" font-size="14.00">like.@present</text>
</g>
<!-- q&#45;&gt;p -->
<g id="edge8" class="edge">
<title>q&#45;&gt;p</title>
<path fill="none" stroke="black" d="M513.17,-174.61C495.54,-161.58 470.69,-143.21 451.13,-128.76"/>
<polygon fill="black" stroke="black" points="452.96,-125.76 442.84,-122.63 448.8,-131.39 452.96,-125.76"/>
<text text-anchor="middle" x="496.34" y="-144.8" font-family="Times,serif" font-size="14.00">obj</text>
</g>
<!-- r -->
<g id="node10" class="node">
<title>r</title>
<ellipse fill="none" stroke="black" cx="563.34" cy="-105" rx="29.5" ry="18"/>
<text text-anchor="middle" x="563.34" y="-101.3" font-family="Times,serif" font-size="14.00">also</text>
</g>
<!-- q&#45;&gt;r -->
<g id="edge9" class="edge">
<title>q&#45;&gt;r</title>
<path fill="none" stroke="black" d="M541.01,-173.8C544.9,-161.97 550.15,-146.03 554.58,-132.58"/>
<polygon fill="black" stroke="black" points="557.97,-133.48 557.78,-122.89 551.32,-131.29 557.97,-133.48"/>
<text text-anchor="middle" x="566.84" y="-144.8" font-family="Times,serif" font-size="14.00">man</text>
</g>
</g>
</svg>
