<?xml version="1.0" encoding="UTF-8" standalone="no"?>
<!DOCTYPE svg PUBLIC "-//W3C//DTD SVG 1.1//EN"
 "http://www.w3.org/Graphics/SVG/1.1/DTD/svg11.dtd">
<!-- Generated by graphviz version 2.43.0 (0)
 -->
<!-- Title: unl_8 Pages: 1 -->
<svg width="326pt" height="392pt"
 viewBox="0.00 0.00 325.89 392.00" xmlns="http://www.w3.org/2000/svg" xmlns:xlink="http://www.w3.org/1999/xlink">
<g id="graph0" class="graph" transform="scale(1 1) rotate(0) translate(4 388)">
<title>unl_8</title>
<polygon fill="white" stroke="transparent" points="-4,4 -4,-388 321.89,-388 321.89,4 -4,4"/>
<!-- c -->
<g id="node1" class="node">
<title>c</title>
<ellipse fill="none" stroke="black" cx="169.55" cy="-366" rx="69.59" ry="18"/>
<text text-anchor="middle" x="169.55" y="-362.3" font-family="Times,serif" font-size="14.00">be.@present</text>
</g>
<!-- i -->
<g id="node2" class="node">
<title>i</title>
<ellipse fill="none" stroke="black" cx="99.55" cy="-279" rx="85.29" ry="18"/>
<text text-anchor="middle" x="99.55" y="-275.3" font-family="Times,serif" font-size="14.00">place.@sg.@def</text>
</g>
<!-- c&#45;&gt;i -->
<g id="edge1" class="edge">
<title>c&#45;&gt;i</title>
<path fill="none" stroke="black" d="M155.72,-348.21C145.53,-335.83 131.5,-318.8 120.01,-304.85"/>
<polygon fill="black" stroke="black" points="122.65,-302.54 113.59,-297.05 117.24,-306.99 122.65,-302.54"/>
<text text-anchor="middle" x="150.55" y="-318.8" font-family="Times,serif" font-size="14.00">obj</text>
</g>
<!-- e -->
<g id="node3" class="node">
<title>e</title>
<ellipse fill="none" stroke="black" cx="240.55" cy="-279" rx="38.19" ry="18"/>
<text text-anchor="middle" x="240.55" y="-275.3" font-family="Times,serif" font-size="14.00">above</text>
</g>
<!-- c&#45;&gt;e -->
<g id="edge2" class="edge">
<title>c&#45;&gt;e</title>
<path fill="none" stroke="black" d="M183.57,-348.21C194.18,-335.51 208.89,-317.9 220.7,-303.76"/>
<polygon fill="black" stroke="black" points="223.54,-305.81 227.27,-295.9 218.17,-301.33 223.54,-305.81"/>
<text text-anchor="middle" x="220.55" y="-318.8" font-family="Times,serif" font-size="14.00">aoj</text>
</g>
<!-- h -->
<g id="node5" class="node">
<title>h</title>
<ellipse fill="none" stroke="black" cx="30.55" cy="-192" rx="30.59" ry="18"/>
<text text-anchor="middle" x="30.55" y="-188.3" font-family="Times,serif" font-size="14.00">best</text>
</g>
<!-- i&#45;&gt;h -->
<g id="edge4" class="edge">
<title>i&#45;&gt;h</title>
<path fill="none" stroke="black" d="M84.74,-261.04C79.85,-255.36 74.41,-248.95 69.55,-243 62.65,-234.56 55.25,-225.17 48.78,-216.83"/>
<polygon fill="black" stroke="black" points="51.54,-214.69 42.66,-208.91 46,-218.96 51.54,-214.69"/>
<text text-anchor="middle" x="85.05" y="-231.8" font-family="Times,serif" font-size="14.00">man</text>
</g>
<!-- k -->
<g id="node6" class="node">
<title>k</title>
<ellipse fill="none" stroke="black" cx="110.55" cy="-192" rx="31.7" ry="18"/>
<text text-anchor="middle" x="110.55" y="-188.3" font-family="Times,serif" font-size="14.00">read</text>
</g>
<!-- i&#45;&gt;k -->
<g id="edge5" class="edge">
<title>i&#45;&gt;k</title>
<path fill="none" stroke="black" d="M101.77,-260.8C103.28,-249.16 105.3,-233.55 107.02,-220.24"/>
<polygon fill="black" stroke="black" points="110.51,-220.54 108.32,-210.18 103.57,-219.64 110.51,-220.54"/>
<text text-anchor="middle" x="119.05" y="-231.8" font-family="Times,serif" font-size="14.00">pur</text>
</g>
<!-- f -->
<g id="node4" class="node">
<title>f</title>
<ellipse fill="none" stroke="black" cx="240.55" cy="-192" rx="77.19" ry="18"/>
<text text-anchor="middle" x="240.55" y="-188.3" font-family="Times,serif" font-size="14.00">bed.@sg.@def</text>
</g>
<!-- e&#45;&gt;f -->
<g id="edge3" class="edge">
<title>e&#45;&gt;f</title>
<path fill="none" stroke="black" d="M240.55,-260.8C240.55,-249.16 240.55,-233.55 240.55,-220.24"/>
<polygon fill="black" stroke="black" points="244.05,-220.18 240.55,-210.18 237.05,-220.18 244.05,-220.18"/>
<text text-anchor="middle" x="251.55" y="-231.8" font-family="Times,serif" font-size="14.00">obj</text>
</g>
<!-- m -->
<g id="node7" class="node">
<title>m</title>
<ellipse fill="none" stroke="black" cx="110.55" cy="-105" rx="83.39" ry="18"/>
<text text-anchor="middle" x="110.55" y="-101.3" font-family="Times,serif" font-size="14.00">novel.@pl.@def</text>
</g>
<!-- k&#45;&gt;m -->
<g id="edge6" class="edge">
<title>k&#45;&gt;m</title>
<path fill="none" stroke="black" d="M110.55,-173.8C110.55,-162.16 110.55,-146.55 110.55,-133.24"/>
<polygon fill="black" stroke="black" points="114.05,-133.18 110.55,-123.18 107.05,-133.18 114.05,-133.18"/>
<text text-anchor="middle" x="121.55" y="-144.8" font-family="Times,serif" font-size="14.00">obj</text>
</g>
<!-- n -->
<g id="node8" class="node">
<title>n</title>
<ellipse fill="none" stroke="black" cx="110.55" cy="-18" rx="46.59" ry="18"/>
<text text-anchor="middle" x="110.55" y="-14.3" font-family="Times,serif" font-size="14.00">favorite</text>
</g>
<!-- m&#45;&gt;n -->
<g id="edge7" class="edge">
<title>m&#45;&gt;n</title>
<path fill="none" stroke="black" d="M110.55,-86.8C110.55,-75.16 110.55,-59.55 110.55,-46.24"/>
<polygon fill="black" stroke="black" points="114.05,-46.18 110.55,-36.18 107.05,-46.18 114.05,-46.18"/>
<text text-anchor="middle" x="126.05" y="-57.8" font-family="Times,serif" font-size="14.00">mod</text>
</g>
</g>
</svg>
