<?xml version="1.0" encoding="UTF-8" standalone="no"?>
<!DOCTYPE svg PUBLIC "-//W3C//DTD SVG 1.1//EN"
 "http://www.w3.org/Graphics/SVG/1.1/DTD/svg11.dtd">
<!-- Generated by graphviz version 2.43.0 (0)
 -->
<!-- Title: unl_9 Pages: 1 -->
<svg width="379pt" height="479pt"
 viewBox="0.00 0.00 378.73 479.00" xmlns="http://www.w3.org/2000/svg" xmlns:xlink="http://www.w3.org/1999/xlink">
<g id="graph0" class="graph" transform="scale(1 1) rotate(0) translate(4 475)">
<title>unl_9</title>
<polygon fill="white" stroke="transparent" points="-4,4 -4,-475 374.73,-475 374.73,4 -4,4"/>
<!-- g -->
<g id="node1" class="node">
<title>g</title>
<ellipse fill="none" stroke="black" cx="218.34" cy="-453" rx="64.19" ry="18"/>
<text text-anchor="middle" x="218.34" y="-449.3" font-family="Times,serif" font-size="14.00">like.@entry</text>
</g>
<!-- i -->
<g id="node2" class="node">
<title>i</title>
<ellipse fill="none" stroke="black" cx="172.34" cy="-366" rx="44.39" ry="18"/>
<text text-anchor="middle" x="172.34" y="-362.3" font-family="Times,serif" font-size="14.00">stretch</text>
</g>
<!-- g&#45;&gt;i -->
<g id="edge1" class="edge">
<title>g&#45;&gt;i</title>
<path fill="none" stroke="black" d="M209.03,-434.8C202.51,-422.74 193.67,-406.4 186.3,-392.79"/>
<polygon fill="black" stroke="black" points="189.32,-391.01 181.48,-383.89 183.16,-394.35 189.32,-391.01"/>
<text text-anchor="middle" x="209.34" y="-405.8" font-family="Times,serif" font-size="14.00">obj</text>
</g>
<!-- h -->
<g id="node5" class="node">
<title>h</title>
<ellipse fill="none" stroke="black" cx="265.34" cy="-366" rx="31.4" ry="18"/>
<text text-anchor="middle" x="265.34" y="-362.3" font-family="Times,serif" font-size="14.00">very</text>
</g>
<!-- g&#45;&gt;h -->
<g id="edge4" class="edge">
<title>g&#45;&gt;h</title>
<path fill="none" stroke="black" d="M227.85,-434.8C234.61,-422.58 243.79,-405.98 251.38,-392.26"/>
<polygon fill="black" stroke="black" points="254.55,-393.76 256.32,-383.31 248.42,-390.37 254.55,-393.76"/>
<text text-anchor="middle" x="260.84" y="-405.8" font-family="Times,serif" font-size="14.00">man</text>
</g>
<!-- e -->
<g id="node3" class="node">
<title>e</title>
<ellipse fill="none" stroke="black" cx="110.34" cy="-279" rx="38.19" ry="18"/>
<text text-anchor="middle" x="110.34" y="-275.3" font-family="Times,serif" font-size="14.00">above</text>
</g>
<!-- i&#45;&gt;e -->
<g id="edge2" class="edge">
<title>i&#45;&gt;e</title>
<path fill="none" stroke="black" d="M160.39,-348.61C151.3,-336.15 138.64,-318.79 128.32,-304.65"/>
<polygon fill="black" stroke="black" points="130.98,-302.36 122.26,-296.34 125.33,-306.48 130.98,-302.36"/>
<text text-anchor="middle" x="156.34" y="-318.8" font-family="Times,serif" font-size="14.00">plc</text>
</g>
<!-- k -->
<g id="node6" class="node">
<title>k</title>
<ellipse fill="none" stroke="black" cx="252.34" cy="-279" rx="68.49" ry="18"/>
<text text-anchor="middle" x="252.34" y="-275.3" font-family="Times,serif" font-size="14.00">contemplate</text>
</g>
<!-- i&#45;&gt;k -->
<g id="edge5" class="edge">
<title>i&#45;&gt;k</title>
<path fill="none" stroke="black" d="M187.39,-349.01C199.23,-336.43 215.92,-318.7 229.42,-304.35"/>
<polygon fill="black" stroke="black" points="232.24,-306.47 236.54,-296.79 227.14,-301.67 232.24,-306.47"/>
<text text-anchor="middle" x="230.84" y="-318.8" font-family="Times,serif" font-size="14.00">and</text>
</g>
<!-- f -->
<g id="node4" class="node">
<title>f</title>
<ellipse fill="none" stroke="black" cx="77.34" cy="-192" rx="77.19" ry="18"/>
<text text-anchor="middle" x="77.34" y="-188.3" font-family="Times,serif" font-size="14.00">bed.@sg.@def</text>
</g>
<!-- e&#45;&gt;f -->
<g id="edge3" class="edge">
<title>e&#45;&gt;f</title>
<path fill="none" stroke="black" d="M103.82,-261.21C99.2,-249.29 92.9,-233.06 87.6,-219.42"/>
<polygon fill="black" stroke="black" points="90.84,-218.1 83.96,-210.05 84.32,-220.64 90.84,-218.1"/>
<text text-anchor="middle" x="107.34" y="-231.8" font-family="Times,serif" font-size="14.00">obj</text>
</g>
<!-- m -->
<g id="node7" class="node">
<title>m</title>
<ellipse fill="none" stroke="black" cx="269.34" cy="-192" rx="96.68" ry="18"/>
<text text-anchor="middle" x="269.34" y="-188.3" font-family="Times,serif" font-size="14.00">painting.@pl.@def</text>
</g>
<!-- k&#45;&gt;m -->
<g id="edge6" class="edge">
<title>k&#45;&gt;m</title>
<path fill="none" stroke="black" d="M255.78,-260.8C258.11,-249.16 261.23,-233.55 263.9,-220.24"/>
<polygon fill="black" stroke="black" points="267.38,-220.67 265.91,-210.18 260.51,-219.29 267.38,-220.67"/>
<text text-anchor="middle" x="273.34" y="-231.8" font-family="Times,serif" font-size="14.00">obj</text>
</g>
<!-- o -->
<g id="node8" class="node">
<title>o</title>
<ellipse fill="none" stroke="black" cx="269.34" cy="-105" rx="77.19" ry="18"/>
<text text-anchor="middle" x="269.34" y="-101.3" font-family="Times,serif" font-size="14.00">wall.@pl.@def</text>
</g>
<!-- m&#45;&gt;o -->
<g id="edge7" class="edge">
<title>m&#45;&gt;o</title>
<path fill="none" stroke="black" d="M269.34,-173.8C269.34,-162.16 269.34,-146.55 269.34,-133.24"/>
<polygon fill="black" stroke="black" points="272.84,-133.18 269.34,-123.18 265.84,-133.18 272.84,-133.18"/>
<text text-anchor="middle" x="280.34" y="-144.8" font-family="Times,serif" font-size="14.00">plc</text>
</g>
<!-- p -->
<g id="node9" class="node">
<title>p</title>
<ellipse fill="none" stroke="black" cx="269.34" cy="-18" rx="101.28" ry="18"/>
<text text-anchor="middle" x="269.34" y="-14.3" font-family="Times,serif" font-size="14.00">bedroom.@sg.@def</text>
</g>
<!-- o&#45;&gt;p -->
<g id="edge8" class="edge">
<title>o&#45;&gt;p</title>
<path fill="none" stroke="black" d="M269.34,-86.8C269.34,-75.16 269.34,-59.55 269.34,-46.24"/>
<polygon fill="black" stroke="black" points="272.84,-46.18 269.34,-36.18 265.84,-46.18 272.84,-46.18"/>
<text text-anchor="middle" x="280.84" y="-57.8" font-family="Times,serif" font-size="14.00">pof</text>
</g>
</g>
</svg>
