<?xml version="1.0" encoding="UTF-8" standalone="no"?>
<!DOCTYPE svg PUBLIC "-//W3C//DTD SVG 1.1//EN"
 "http://www.w3.org/Graphics/SVG/1.1/DTD/svg11.dtd">
<!-- Generated by graphviz version 2.43.0 (0)
 -->
<!-- Title: unl_3 Pages: 1 -->
<svg width="759pt" height="479pt"
 viewBox="0.00 0.00 758.64 479.00" xmlns="http://www.w3.org/2000/svg" xmlns:xlink="http://www.w3.org/1999/xlink">
<g id="graph0" class="graph" transform="scale(1 1) rotate(0) translate(4 475)">
<title>unl_3</title>
<polygon fill="white" stroke="transparent" points="-4,4 -4,-475 754.64,-475 754.64,4 -4,4"/>
<!-- i -->
<g id="node1" class="node">
<title>i</title>
<ellipse fill="none" stroke="black" cx="170.75" cy="-453" rx="122.38" ry="18"/>
<text text-anchor="middle" x="170.75" y="-449.3" font-family="Times,serif" font-size="14.00">spend.@entry.@present</text>
</g>
<!-- b -->
<g id="node2" class="node">
<title>b</title>
<ellipse fill="none" stroke="black" cx="35.75" cy="-366" rx="36" ry="18"/>
<text text-anchor="middle" x="35.75" y="-362.3" font-family="Times,serif" font-size="14.00">there</text>
</g>
<!-- i&#45;&gt;b -->
<g id="edge1" class="edge">
<title>i&#45;&gt;b</title>
<path fill="none" stroke="black" d="M144.4,-435.41C121.81,-421.19 89.27,-400.7 65.7,-385.86"/>
<polygon fill="black" stroke="black" points="67.47,-382.84 57.14,-380.47 63.74,-388.76 67.47,-382.84"/>
<text text-anchor="middle" x="122.75" y="-405.8" font-family="Times,serif" font-size="14.00">plc</text>
</g>
<!-- e -->
<g id="node3" class="node">
<title>e</title>
<ellipse fill="none" stroke="black" cx="170.75" cy="-366" rx="81.49" ry="18"/>
<text text-anchor="middle" x="170.75" y="-362.3" font-family="Times,serif" font-size="14.00">free_time.@def</text>
</g>
<!-- i&#45;&gt;e -->
<g id="edge2" class="edge">
<title>i&#45;&gt;e</title>
<path fill="none" stroke="black" d="M170.75,-434.8C170.75,-423.16 170.75,-407.55 170.75,-394.24"/>
<polygon fill="black" stroke="black" points="174.25,-394.18 170.75,-384.18 167.25,-394.18 174.25,-394.18"/>
<text text-anchor="middle" x="183.25" y="-405.8" font-family="Times,serif" font-size="14.00">dur</text>
</g>
<!-- m -->
<g id="node6" class="node">
<title>m</title>
<ellipse fill="none" stroke="black" cx="359.75" cy="-366" rx="89.88" ry="18"/>
<text text-anchor="middle" x="359.75" y="-362.3" font-family="Times,serif" font-size="14.00">listen.@progress</text>
</g>
<!-- i&#45;&gt;m -->
<g id="edge5" class="edge">
<title>i&#45;&gt;m</title>
<path fill="none" stroke="black" d="M207.19,-435.61C238.14,-421.69 282.65,-401.67 315.61,-386.85"/>
<polygon fill="black" stroke="black" points="317.33,-389.91 325.01,-382.62 314.46,-383.53 317.33,-389.91"/>
<text text-anchor="middle" x="287.75" y="-405.8" font-family="Times,serif" font-size="14.00">obj</text>
</g>
<!-- g -->
<g id="node4" class="node">
<title>g</title>
<ellipse fill="none" stroke="black" cx="170.75" cy="-279" rx="79.89" ry="18"/>
<text text-anchor="middle" x="170.75" y="-275.3" font-family="Times,serif" font-size="14.00">part.@sg.@def</text>
</g>
<!-- e&#45;&gt;g -->
<g id="edge3" class="edge">
<title>e&#45;&gt;g</title>
<path fill="none" stroke="black" d="M170.75,-347.8C170.75,-336.16 170.75,-320.55 170.75,-307.24"/>
<polygon fill="black" stroke="black" points="174.25,-307.18 170.75,-297.18 167.25,-307.18 174.25,-307.18"/>
<text text-anchor="middle" x="184.25" y="-318.8" font-family="Times,serif" font-size="14.00">qua</text>
</g>
<!-- h -->
<g id="node5" class="node">
<title>h</title>
<ellipse fill="none" stroke="black" cx="170.75" cy="-192" rx="33.6" ry="18"/>
<text text-anchor="middle" x="170.75" y="-188.3" font-family="Times,serif" font-size="14.00">most</text>
</g>
<!-- g&#45;&gt;h -->
<g id="edge4" class="edge">
<title>g&#45;&gt;h</title>
<path fill="none" stroke="black" d="M170.75,-260.8C170.75,-249.16 170.75,-233.55 170.75,-220.24"/>
<polygon fill="black" stroke="black" points="174.25,-220.18 170.75,-210.18 167.25,-220.18 174.25,-220.18"/>
<text text-anchor="middle" x="186.25" y="-231.8" font-family="Times,serif" font-size="14.00">mod</text>
</g>
<!-- l -->
<g id="node7" class="node">
<title>l</title>
<ellipse fill="none" stroke="black" cx="350.75" cy="-279" rx="73.39" ry="18"/>
<text text-anchor="middle" x="350.75" y="-275.3" font-family="Times,serif" font-size="14.00">music.@indef</text>
</g>
<!-- m&#45;&gt;l -->
<g id="edge6" class="edge">
<title>m&#45;&gt;l</title>
<path fill="none" stroke="black" d="M357.93,-347.8C356.69,-336.16 355.04,-320.55 353.63,-307.24"/>
<polygon fill="black" stroke="black" points="357.1,-306.75 352.57,-297.18 350.14,-307.49 357.1,-306.75"/>
<text text-anchor="middle" x="367.75" y="-318.8" font-family="Times,serif" font-size="14.00">obj</text>
</g>
<!-- s -->
<g id="node8" class="node">
<title>s</title>
<ellipse fill="none" stroke="black" cx="527.75" cy="-279" rx="85.29" ry="18"/>
<text text-anchor="middle" x="527.75" y="-275.3" font-family="Times,serif" font-size="14.00">read.@progress</text>
</g>
<!-- m&#45;&gt;s -->
<g id="edge7" class="edge">
<title>m&#45;&gt;s</title>
<path fill="none" stroke="black" d="M391.35,-349.01C418.53,-335.26 457.92,-315.33 487.38,-300.42"/>
<polygon fill="black" stroke="black" points="489.23,-303.41 496.57,-295.77 486.07,-297.16 489.23,-303.41"/>
<text text-anchor="middle" x="462.75" y="-318.8" font-family="Times,serif" font-size="14.00">or</text>
</g>
<!-- q -->
<g id="node9" class="node">
<title>q</title>
<ellipse fill="none" stroke="black" cx="449.75" cy="-192" rx="89.08" ry="18"/>
<text text-anchor="middle" x="449.75" y="-188.3" font-family="Times,serif" font-size="14.00">book.@pl.@indef</text>
</g>
<!-- s&#45;&gt;q -->
<g id="edge8" class="edge">
<title>s&#45;&gt;q</title>
<path fill="none" stroke="black" d="M512.34,-261.21C500.8,-248.63 484.85,-231.25 471.94,-217.18"/>
<polygon fill="black" stroke="black" points="474.47,-214.76 465.13,-209.76 469.31,-219.49 474.47,-214.76"/>
<text text-anchor="middle" x="504.75" y="-231.8" font-family="Times,serif" font-size="14.00">obj</text>
</g>
<!-- u -->
<g id="node11" class="node">
<title>u</title>
<ellipse fill="none" stroke="black" cx="642.75" cy="-192" rx="86.38" ry="18"/>
<text text-anchor="middle" x="642.75" y="-188.3" font-family="Times,serif" font-size="14.00">draw.@progress</text>
</g>
<!-- s&#45;&gt;u -->
<g id="edge10" class="edge">
<title>s&#45;&gt;u</title>
<path fill="none" stroke="black" d="M549.92,-261.61C567.55,-248.58 592.4,-230.21 611.96,-215.76"/>
<polygon fill="black" stroke="black" points="614.29,-218.39 620.25,-209.63 610.13,-212.76 614.29,-218.39"/>
<text text-anchor="middle" x="599.75" y="-231.8" font-family="Times,serif" font-size="14.00">or</text>
</g>
<!-- r -->
<g id="node10" class="node">
<title>r</title>
<ellipse fill="none" stroke="black" cx="449.75" cy="-105" rx="61.99" ry="18"/>
<text text-anchor="middle" x="449.75" y="-101.3" font-family="Times,serif" font-size="14.00">interesting</text>
</g>
<!-- q&#45;&gt;r -->
<g id="edge9" class="edge">
<title>q&#45;&gt;r</title>
<path fill="none" stroke="black" d="M449.75,-173.8C449.75,-162.16 449.75,-146.55 449.75,-133.24"/>
<polygon fill="black" stroke="black" points="453.25,-133.18 449.75,-123.18 446.25,-133.18 453.25,-133.18"/>
<text text-anchor="middle" x="465.25" y="-144.8" font-family="Times,serif" font-size="14.00">mod</text>
</g>
<!-- w -->
<g id="node12" class="node">
<title>w</title>
<ellipse fill="none" stroke="black" cx="642.75" cy="-105" rx="27" ry="18"/>
<text text-anchor="middle" x="642.75" y="-101.3" font-family="Times,serif" font-size="14.00">all</text>
</g>
<!-- u&#45;&gt;w -->
<g id="edge11" class="edge">
<title>u&#45;&gt;w</title>
<path fill="none" stroke="black" d="M642.75,-173.8C642.75,-162.16 642.75,-146.55 642.75,-133.24"/>
<polygon fill="black" stroke="black" points="646.25,-133.18 642.75,-123.18 639.25,-133.18 646.25,-133.18"/>
<text text-anchor="middle" x="653.75" y="-144.8" font-family="Times,serif" font-size="14.00">obj</text>
</g>
<!-- x -->
<g id="node13" class="node">
<title>x</title>
<ellipse fill="none" stroke="black" cx="642.75" cy="-18" rx="107.78" ry="18"/>
<text text-anchor="middle" x="642.75" y="-14.3" font-family="Times,serif" font-size="14.00">imagine.@possibility</text>
</g>
<!-- w&#45;&gt;x -->
<g id="edge12" class="edge">
<title>w&#45;&gt;x</title>
<path fill="none" stroke="black" d="M642.75,-86.8C642.75,-75.16 642.75,-59.55 642.75,-46.24"/>
<polygon fill="black" stroke="black" points="646.25,-46.18 642.75,-36.18 639.25,-46.18 646.25,-46.18"/>
<text text-anchor="middle" x="656.25" y="-57.8" font-family="Times,serif" font-size="14.00">qua</text>
</g>
</g>
</svg>
