<?xml version="1.0" encoding="UTF-8" standalone="no"?>
<!DOCTYPE svg PUBLIC "-//W3C//DTD SVG 1.1//EN"
 "http://www.w3.org/Graphics/SVG/1.1/DTD/svg11.dtd">
<!-- Generated by graphviz version 2.43.0 (0)
 -->
<!-- Title: unl_2 Pages: 1 -->
<svg width="728pt" height="218pt"
 viewBox="0.00 0.00 727.89 218.00" xmlns="http://www.w3.org/2000/svg" xmlns:xlink="http://www.w3.org/1999/xlink">
<g id="graph0" class="graph" transform="scale(1 1) rotate(0) translate(4 214)">
<title>unl_2</title>
<polygon fill="white" stroke="transparent" points="-4,4 -4,-214 723.89,-214 723.89,4 -4,4"/>
<!-- i -->
<g id="node1" class="node">
<title>i</title>
<ellipse fill="none" stroke="black" cx="233.15" cy="-192" rx="105.08" ry="18"/>
<text text-anchor="middle" x="233.15" y="-188.3" font-family="Times,serif" font-size="14.00">go.@entry.@present</text>
</g>
<!-- b -->
<g id="node2" class="node">
<title>b</title>
<ellipse fill="none" stroke="black" cx="46.15" cy="-105" rx="46.29" ry="18"/>
<text text-anchor="middle" x="46.15" y="-101.3" font-family="Times,serif" font-size="14.00">directly</text>
</g>
<!-- i&#45;&gt;b -->
<g id="edge1" class="edge">
<title>i&#45;&gt;b</title>
<path fill="none" stroke="black" d="M197.97,-175.01C165.62,-160.31 117.75,-138.55 84.44,-123.41"/>
<polygon fill="black" stroke="black" points="85.58,-120.08 75.03,-119.13 82.69,-126.45 85.58,-120.08"/>
<text text-anchor="middle" x="166.65" y="-144.8" font-family="Times,serif" font-size="14.00">man</text>
</g>
<!-- d -->
<g id="node3" class="node">
<title>d</title>
<ellipse fill="none" stroke="black" cx="212.15" cy="-105" rx="101.28" ry="18"/>
<text text-anchor="middle" x="212.15" y="-101.3" font-family="Times,serif" font-size="14.00">bedroom.@sg.@def</text>
</g>
<!-- i&#45;&gt;d -->
<g id="edge2" class="edge">
<title>i&#45;&gt;d</title>
<path fill="none" stroke="black" d="M228.9,-173.8C226.02,-162.16 222.16,-146.55 218.87,-133.24"/>
<polygon fill="black" stroke="black" points="222.19,-132.04 216.39,-123.18 215.39,-133.72 222.19,-132.04"/>
<text text-anchor="middle" x="234.15" y="-144.8" font-family="Times,serif" font-size="14.00">plt</text>
</g>
<!-- g -->
<g id="node4" class="node">
<title>g</title>
<ellipse fill="none" stroke="black" cx="361.15" cy="-105" rx="29.5" ry="18"/>
<text text-anchor="middle" x="361.15" y="-101.3" font-family="Times,serif" font-size="14.00">rest</text>
</g>
<!-- i&#45;&gt;g -->
<g id="edge3" class="edge">
<title>i&#45;&gt;g</title>
<path fill="none" stroke="black" d="M258.13,-174.41C279.84,-159.99 311.23,-139.15 333.65,-124.26"/>
<polygon fill="black" stroke="black" points="335.67,-127.12 342.06,-118.67 331.79,-121.29 335.67,-127.12"/>
<text text-anchor="middle" x="317.65" y="-144.8" font-family="Times,serif" font-size="14.00">pur</text>
</g>
<!-- m -->
<g id="node6" class="node">
<title>m</title>
<ellipse fill="none" stroke="black" cx="495.15" cy="-105" rx="86.38" ry="18"/>
<text text-anchor="middle" x="495.15" y="-101.3" font-family="Times,serif" font-size="14.00">arrive.@present</text>
</g>
<!-- i&#45;&gt;m -->
<g id="edge5" class="edge">
<title>i&#45;&gt;m</title>
<path fill="none" stroke="black" d="M279.99,-175.8C325.06,-161.18 393.18,-139.08 440.66,-123.68"/>
<polygon fill="black" stroke="black" points="442.03,-126.91 450.46,-120.5 439.87,-120.25 442.03,-126.91"/>
<text text-anchor="middle" x="392.65" y="-144.8" font-family="Times,serif" font-size="14.00">tim</text>
</g>
<!-- h -->
<g id="node5" class="node">
<title>h</title>
<ellipse fill="none" stroke="black" cx="361.15" cy="-18" rx="51.99" ry="18"/>
<text text-anchor="middle" x="361.15" y="-14.3" font-family="Times,serif" font-size="14.00">have_fun</text>
</g>
<!-- g&#45;&gt;h -->
<g id="edge4" class="edge">
<title>g&#45;&gt;h</title>
<path fill="none" stroke="black" d="M361.15,-86.8C361.15,-75.16 361.15,-59.55 361.15,-46.24"/>
<polygon fill="black" stroke="black" points="364.65,-46.18 361.15,-36.18 357.65,-46.18 364.65,-46.18"/>
<text text-anchor="middle" x="374.65" y="-57.8" font-family="Times,serif" font-size="14.00">and</text>
</g>
<!-- l -->
<g id="node7" class="node">
<title>l</title>
<ellipse fill="none" stroke="black" cx="484.15" cy="-18" rx="42.49" ry="18"/>
<text text-anchor="middle" x="484.15" y="-14.3" font-family="Times,serif" font-size="14.00">always</text>
</g>
<!-- m&#45;&gt;l -->
<g id="edge6" class="edge">
<title>m&#45;&gt;l</title>
<path fill="none" stroke="black" d="M492.92,-86.8C491.41,-75.16 489.39,-59.55 487.67,-46.24"/>
<polygon fill="black" stroke="black" points="491.12,-45.64 486.37,-36.18 484.18,-46.54 491.12,-45.64"/>
<text text-anchor="middle" x="506.65" y="-57.8" font-family="Times,serif" font-size="14.00">man</text>
</g>
<!-- n -->
<g id="node8" class="node">
<title>n</title>
<ellipse fill="none" stroke="black" cx="632.15" cy="-18" rx="87.99" ry="18"/>
<text text-anchor="middle" x="632.15" y="-14.3" font-family="Times,serif" font-size="14.00">house.@sg.@def</text>
</g>
<!-- m&#45;&gt;n -->
<g id="edge7" class="edge">
<title>m&#45;&gt;n</title>
<path fill="none" stroke="black" d="M521.24,-87.81C542.72,-74.49 573.36,-55.47 597,-40.8"/>
<polygon fill="black" stroke="black" points="599.03,-43.66 605.69,-35.42 595.34,-37.72 599.03,-43.66"/>
<text text-anchor="middle" x="582.15" y="-57.8" font-family="Times,serif" font-size="14.00">plt</text>
</g>
</g>
</svg>
