<?xml version="1.0" encoding="UTF-8" standalone="no"?>
<!DOCTYPE svg PUBLIC "-//W3C//DTD SVG 1.1//EN"
 "http://www.w3.org/Graphics/SVG/1.1/DTD/svg11.dtd">
<!-- Generated by graphviz version 2.43.0 (0)
 -->
<!-- Title: unl_10 Pages: 1 -->
<svg width="686pt" height="479pt"
 viewBox="0.00 0.00 685.58 479.00" xmlns="http://www.w3.org/2000/svg" xmlns:xlink="http://www.w3.org/1999/xlink">
<g id="graph0" class="graph" transform="scale(1 1) rotate(0) translate(4 475)">
<title>unl_10</title>
<polygon fill="white" stroke="transparent" points="-4,4 -4,-475 681.58,-475 681.58,4 -4,4"/>
<!-- e -->
<g id="node1" class="node">
<title>e</title>
<ellipse fill="none" stroke="black" cx="180.39" cy="-453" rx="102.88" ry="18"/>
<text text-anchor="middle" x="180.39" y="-449.3" font-family="Times,serif" font-size="14.00">place.@entry.@past</text>
</g>
<!-- c -->
<g id="node2" class="node">
<title>c</title>
<ellipse fill="none" stroke="black" cx="103.39" cy="-366" rx="98.58" ry="18"/>
<text text-anchor="middle" x="103.39" y="-362.3" font-family="Times,serif" font-size="14.00">corner.@sg.@indef</text>
</g>
<!-- e&#45;&gt;c -->
<g id="edge1" class="edge">
<title>e&#45;&gt;c</title>
<path fill="none" stroke="black" d="M164.81,-434.8C153.57,-422.39 138.23,-405.46 125.69,-391.62"/>
<polygon fill="black" stroke="black" points="127.99,-388.95 118.69,-383.89 122.81,-393.65 127.99,-388.95"/>
<text text-anchor="middle" x="158.39" y="-405.8" font-family="Times,serif" font-size="14.00">plc</text>
</g>
<!-- j -->
<g id="node4" class="node">
<title>j</title>
<ellipse fill="none" stroke="black" cx="312.39" cy="-366" rx="90.98" ry="18"/>
<text text-anchor="middle" x="312.39" y="-362.3" font-family="Times,serif" font-size="14.00">desk.@sg.@indef</text>
</g>
<!-- e&#45;&gt;j -->
<g id="edge3" class="edge">
<title>e&#45;&gt;j</title>
<path fill="none" stroke="black" d="M206.16,-435.41C226.69,-422.19 255.62,-403.56 278.11,-389.07"/>
<polygon fill="black" stroke="black" points="280.18,-391.91 286.69,-383.55 276.39,-386.02 280.18,-391.91"/>
<text text-anchor="middle" x="265.39" y="-405.8" font-family="Times,serif" font-size="14.00">obj</text>
</g>
<!-- d -->
<g id="node3" class="node">
<title>d</title>
<ellipse fill="none" stroke="black" cx="101.39" cy="-279" rx="101.28" ry="18"/>
<text text-anchor="middle" x="101.39" y="-275.3" font-family="Times,serif" font-size="14.00">bedroom.@sg.@def</text>
</g>
<!-- c&#45;&gt;d -->
<g id="edge2" class="edge">
<title>c&#45;&gt;d</title>
<path fill="none" stroke="black" d="M102.99,-347.8C102.71,-336.16 102.35,-320.55 102.03,-307.24"/>
<polygon fill="black" stroke="black" points="105.53,-307.09 101.8,-297.18 98.53,-307.26 105.53,-307.09"/>
<text text-anchor="middle" x="114.89" y="-318.8" font-family="Times,serif" font-size="14.00">pof</text>
</g>
<!-- h -->
<g id="node5" class="node">
<title>h</title>
<ellipse fill="none" stroke="black" cx="312.39" cy="-279" rx="91.78" ry="18"/>
<text text-anchor="middle" x="312.39" y="-275.3" font-family="Times,serif" font-size="14.00">chair.@sg.@indef</text>
</g>
<!-- j&#45;&gt;h -->
<g id="edge4" class="edge">
<title>j&#45;&gt;h</title>
<path fill="none" stroke="black" d="M312.39,-347.8C312.39,-336.16 312.39,-320.55 312.39,-307.24"/>
<polygon fill="black" stroke="black" points="315.89,-307.18 312.39,-297.18 308.89,-307.18 315.89,-307.18"/>
<text text-anchor="middle" x="325.89" y="-318.8" font-family="Times,serif" font-size="14.00">and</text>
</g>
<!-- k -->
<g id="node6" class="node">
<title>k</title>
<ellipse fill="none" stroke="black" cx="396.39" cy="-453" rx="83.39" ry="18"/>
<text text-anchor="middle" x="396.39" y="-449.3" font-family="Times,serif" font-size="14.00">study.@present</text>
</g>
<!-- k&#45;&gt;j -->
<g id="edge5" class="edge">
<title>k&#45;&gt;j</title>
<path fill="none" stroke="black" d="M379.8,-435.21C367.37,-422.63 350.19,-405.25 336.29,-391.18"/>
<polygon fill="black" stroke="black" points="338.47,-388.41 328.95,-383.76 333.49,-393.33 338.47,-388.41"/>
<text text-anchor="middle" x="371.39" y="-405.8" font-family="Times,serif" font-size="14.00">plc</text>
</g>
<!-- m -->
<g id="node7" class="node">
<title>m</title>
<ellipse fill="none" stroke="black" cx="500.39" cy="-366" rx="74.99" ry="18"/>
<text text-anchor="middle" x="500.39" y="-362.3" font-family="Times,serif" font-size="14.00">use.@present</text>
</g>
<!-- k&#45;&gt;m -->
<g id="edge6" class="edge">
<title>k&#45;&gt;m</title>
<path fill="none" stroke="black" d="M416.94,-435.21C432.71,-422.32 454.66,-404.38 472.09,-390.13"/>
<polygon fill="black" stroke="black" points="474.71,-392.51 480.24,-383.47 470.28,-387.09 474.71,-392.51"/>
<text text-anchor="middle" x="463.39" y="-405.8" font-family="Times,serif" font-size="14.00">or</text>
</g>
<!-- o -->
<g id="node8" class="node">
<title>o</title>
<ellipse fill="none" stroke="black" cx="504.39" cy="-279" rx="82.59" ry="18"/>
<text text-anchor="middle" x="504.39" y="-275.3" font-family="Times,serif" font-size="14.00">book.@sg.@def</text>
</g>
<!-- m&#45;&gt;o -->
<g id="edge7" class="edge">
<title>m&#45;&gt;o</title>
<path fill="none" stroke="black" d="M501.2,-347.8C501.75,-336.16 502.48,-320.55 503.11,-307.24"/>
<polygon fill="black" stroke="black" points="506.61,-307.33 503.58,-297.18 499.62,-307 506.61,-307.33"/>
<text text-anchor="middle" x="514.39" y="-318.8" font-family="Times,serif" font-size="14.00">ins</text>
</g>
<!-- q -->
<g id="node9" class="node">
<title>q</title>
<ellipse fill="none" stroke="black" cx="504.39" cy="-192" rx="96.68" ry="18"/>
<text text-anchor="middle" x="504.39" y="-188.3" font-family="Times,serif" font-size="14.00">exercise.@pl.@def</text>
</g>
<!-- o&#45;&gt;q -->
<g id="edge8" class="edge">
<title>o&#45;&gt;q</title>
<path fill="none" stroke="black" d="M504.39,-260.8C504.39,-249.16 504.39,-233.55 504.39,-220.24"/>
<polygon fill="black" stroke="black" points="507.89,-220.18 504.39,-210.18 500.89,-220.18 507.89,-220.18"/>
<text text-anchor="middle" x="515.39" y="-231.8" font-family="Times,serif" font-size="14.00">obj</text>
</g>
<!-- u -->
<g id="node10" class="node">
<title>u</title>
<ellipse fill="none" stroke="black" cx="504.39" cy="-105" rx="34.39" ry="18"/>
<text text-anchor="middle" x="504.39" y="-101.3" font-family="Times,serif" font-size="14.00">learn</text>
</g>
<!-- q&#45;&gt;u -->
<g id="edge9" class="edge">
<title>q&#45;&gt;u</title>
<path fill="none" stroke="black" d="M504.39,-173.8C504.39,-162.16 504.39,-146.55 504.39,-133.24"/>
<polygon fill="black" stroke="black" points="507.89,-133.18 504.39,-123.18 500.89,-133.18 507.89,-133.18"/>
<text text-anchor="middle" x="516.89" y="-144.8" font-family="Times,serif" font-size="14.00">pur</text>
</g>
<!-- t -->
<g id="node11" class="node">
<title>t</title>
<ellipse fill="none" stroke="black" cx="427.39" cy="-18" rx="39.79" ry="18"/>
<text text-anchor="middle" x="427.39" y="-14.3" font-family="Times,serif" font-size="14.00">better</text>
</g>
<!-- u&#45;&gt;t -->
<g id="edge10" class="edge">
<title>u&#45;&gt;t</title>
<path fill="none" stroke="black" d="M490.27,-88.41C478.69,-75.63 462.12,-57.34 448.9,-42.74"/>
<polygon fill="black" stroke="black" points="451.26,-40.13 441.95,-35.07 446.07,-44.83 451.26,-40.13"/>
<text text-anchor="middle" x="486.89" y="-57.8" font-family="Times,serif" font-size="14.00">man</text>
</g>
<!-- v -->
<g id="node12" class="node">
<title>v</title>
<ellipse fill="none" stroke="black" cx="581.39" cy="-18" rx="96.38" ry="18"/>
<text text-anchor="middle" x="581.39" y="-14.3" font-family="Times,serif" font-size="14.00">spanish.@sg.@def</text>
</g>
<!-- u&#45;&gt;v -->
<g id="edge11" class="edge">
<title>u&#45;&gt;v</title>
<path fill="none" stroke="black" d="M518.51,-88.41C529.87,-75.87 546.03,-58.03 559.13,-43.58"/>
<polygon fill="black" stroke="black" points="561.92,-45.71 566.04,-35.95 556.73,-41.01 561.92,-45.71"/>
<text text-anchor="middle" x="558.39" y="-57.8" font-family="Times,serif" font-size="14.00">obj</text>
</g>
</g>
</svg>
