<?xml version="1.0" encoding="UTF-8" standalone="no"?>
<!DOCTYPE svg PUBLIC "-//W3C//DTD SVG 1.1//EN"
 "http://www.w3.org/Graphics/SVG/1.1/DTD/svg11.dtd">
<!-- Generated by graphviz version 2.43.0 (0)
 -->
<!-- Title: unl_1 Pages: 1 -->
<svg width="484pt" height="218pt"
 viewBox="0.00 0.00 483.78 218.00" xmlns="http://www.w3.org/2000/svg" xmlns:xlink="http://www.w3.org/1999/xlink">
<g id="graph0" class="graph" transform="scale(1 1) rotate(0) translate(4 214)">
<title>unl_1</title>
<polygon fill="white" stroke="transparent" points="-4,4 -4,-214 479.78,-214 479.78,4 -4,4"/>
<!-- d -->
<g id="node1" class="node">
<title>d</title>
<ellipse fill="none" stroke="black" cx="101.39" cy="-105" rx="101.28" ry="18"/>
<text text-anchor="middle" x="101.39" y="-101.3" font-family="Times,serif" font-size="14.00">bedroom.@sg.@def</text>
</g>
<!-- b -->
<g id="node2" class="node">
<title>b</title>
<ellipse fill="none" stroke="black" cx="101.39" cy="-18" rx="85.59" ry="18"/>
<text text-anchor="middle" x="101.39" y="-14.3" font-family="Times,serif" font-size="14.00">home.@sg.@def</text>
</g>
<!-- d&#45;&gt;b -->
<g id="edge1" class="edge">
<title>d&#45;&gt;b</title>
<path fill="none" stroke="black" d="M101.39,-86.8C101.39,-75.16 101.39,-59.55 101.39,-46.24"/>
<polygon fill="black" stroke="black" points="104.89,-46.18 101.39,-36.18 97.89,-46.18 104.89,-46.18"/>
<text text-anchor="middle" x="112.89" y="-57.8" font-family="Times,serif" font-size="14.00">pof</text>
</g>
<!-- e -->
<g id="node3" class="node">
<title>e</title>
<ellipse fill="none" stroke="black" cx="224.39" cy="-192" rx="69.59" ry="18"/>
<text text-anchor="middle" x="224.39" y="-188.3" font-family="Times,serif" font-size="14.00">be.@present</text>
</g>
<!-- e&#45;&gt;d -->
<g id="edge2" class="edge">
<title>e&#45;&gt;d</title>
<path fill="none" stroke="black" d="M201.26,-175.01C182.17,-161.82 154.88,-142.97 133.65,-128.3"/>
<polygon fill="black" stroke="black" points="135.48,-125.3 125.26,-122.5 131.5,-131.06 135.48,-125.3"/>
<text text-anchor="middle" x="181.39" y="-144.8" font-family="Times,serif" font-size="14.00">aoj</text>
</g>
<!-- g -->
<g id="node4" class="node">
<title>g</title>
<ellipse fill="none" stroke="black" cx="348.39" cy="-105" rx="127.28" ry="18"/>
<text text-anchor="middle" x="348.39" y="-101.3" font-family="Times,serif" font-size="14.00">place.@entry.@pl.@indef</text>
</g>
<!-- e&#45;&gt;g -->
<g id="edge3" class="edge">
<title>e&#45;&gt;g</title>
<path fill="none" stroke="black" d="M247.71,-175.01C266.83,-161.91 294.11,-143.21 315.45,-128.58"/>
<polygon fill="black" stroke="black" points="317.63,-131.33 323.9,-122.79 313.67,-125.56 317.63,-131.33"/>
<text text-anchor="middle" x="305.39" y="-144.8" font-family="Times,serif" font-size="14.00">obj</text>
</g>
<!-- h -->
<g id="node5" class="node">
<title>h</title>
<ellipse fill="none" stroke="black" cx="348.39" cy="-18" rx="46.59" ry="18"/>
<text text-anchor="middle" x="348.39" y="-14.3" font-family="Times,serif" font-size="14.00">favorite</text>
</g>
<!-- g&#45;&gt;h -->
<g id="edge4" class="edge">
<title>g&#45;&gt;h</title>
<path fill="none" stroke="black" d="M348.39,-86.8C348.39,-75.16 348.39,-59.55 348.39,-46.24"/>
<polygon fill="black" stroke="black" points="351.89,-46.18 348.39,-36.18 344.89,-46.18 351.89,-46.18"/>
<text text-anchor="middle" x="363.89" y="-57.8" font-family="Times,serif" font-size="14.00">mod</text>
</g>
</g>
</svg>
