<?xml version="1.0" encoding="UTF-8" standalone="no"?>
<!DOCTYPE svg PUBLIC "-//W3C//DTD SVG 1.1//EN"
 "http://www.w3.org/Graphics/SVG/1.1/DTD/svg11.dtd">
<!-- Generated by graphviz version 2.43.0 (0)
 -->
<!-- Title: unl_6 Pages: 1 -->
<svg width="814pt" height="305pt"
 viewBox="0.00 0.00 813.74 305.00" xmlns="http://www.w3.org/2000/svg" xmlns:xlink="http://www.w3.org/1999/xlink">
<g id="graph0" class="graph" transform="scale(1 1) rotate(0) translate(4 301)">
<title>unl_6</title>
<polygon fill="white" stroke="transparent" points="-4,4 -4,-301 809.74,-301 809.74,4 -4,4"/>
<!-- e -->
<g id="node1" class="node">
<title>e</title>
<ellipse fill="none" stroke="black" cx="561.39" cy="-279" rx="69.59" ry="18"/>
<text text-anchor="middle" x="561.39" y="-275.3" font-family="Times,serif" font-size="14.00">be.@present</text>
</g>
<!-- o -->
<g id="node2" class="node">
<title>o</title>
<ellipse fill="none" stroke="black" cx="312.39" cy="-192" rx="80.69" ry="18"/>
<text text-anchor="middle" x="312.39" y="-188.3" font-family="Times,serif" font-size="14.00">have.@present</text>
</g>
<!-- e&#45;&gt;o -->
<g id="edge1" class="edge">
<title>e&#45;&gt;o</title>
<path fill="none" stroke="black" d="M521.11,-264.25C478.45,-249.69 410.95,-226.64 364.32,-210.73"/>
<polygon fill="black" stroke="black" points="365.29,-207.36 354.7,-207.44 363.03,-213.99 365.29,-207.36"/>
<text text-anchor="middle" x="465.89" y="-231.8" font-family="Times,serif" font-size="14.00">and</text>
</g>
<!-- g -->
<g id="node3" class="node">
<title>g</title>
<ellipse fill="none" stroke="black" cx="561.39" cy="-192" rx="71.49" ry="18"/>
<text text-anchor="middle" x="561.39" y="-188.3" font-family="Times,serif" font-size="14.00">paint.@entry</text>
</g>
<!-- e&#45;&gt;g -->
<g id="edge2" class="edge">
<title>e&#45;&gt;g</title>
<path fill="none" stroke="black" d="M561.39,-260.8C561.39,-249.16 561.39,-233.55 561.39,-220.24"/>
<polygon fill="black" stroke="black" points="564.89,-220.18 561.39,-210.18 557.89,-220.18 564.89,-220.18"/>
<text text-anchor="middle" x="572.39" y="-231.8" font-family="Times,serif" font-size="14.00">obj</text>
</g>
<!-- f -->
<g id="node4" class="node">
<title>f</title>
<ellipse fill="none" stroke="black" cx="728.39" cy="-192" rx="77.19" ry="18"/>
<text text-anchor="middle" x="728.39" y="-188.3" font-family="Times,serif" font-size="14.00">wall.@pl.@def</text>
</g>
<!-- e&#45;&gt;f -->
<g id="edge3" class="edge">
<title>e&#45;&gt;f</title>
<path fill="none" stroke="black" d="M591.63,-262.61C618.78,-248.79 658.8,-228.42 688.54,-213.28"/>
<polygon fill="black" stroke="black" points="690.49,-216.22 697.81,-208.57 687.31,-209.98 690.49,-216.22"/>
<text text-anchor="middle" x="666.39" y="-231.8" font-family="Times,serif" font-size="14.00">aoj</text>
</g>
<!-- m -->
<g id="node7" class="node">
<title>m</title>
<ellipse fill="none" stroke="black" cx="152.39" cy="-105" rx="35.19" ry="18"/>
<text text-anchor="middle" x="152.39" y="-101.3" font-family="Times,serif" font-size="14.00">same</text>
</g>
<!-- o&#45;&gt;m -->
<g id="edge6" class="edge">
<title>o&#45;&gt;m</title>
<path fill="none" stroke="black" d="M282.67,-175.21C255.07,-160.55 214.03,-138.74 185.41,-123.54"/>
<polygon fill="black" stroke="black" points="186.69,-120.26 176.22,-118.66 183.41,-126.44 186.69,-120.26"/>
<text text-anchor="middle" x="253.39" y="-144.8" font-family="Times,serif" font-size="14.00">obj</text>
</g>
<!-- s -->
<g id="node9" class="node">
<title>s</title>
<ellipse fill="none" stroke="black" cx="312.39" cy="-105" rx="83.39" ry="18"/>
<text text-anchor="middle" x="312.39" y="-101.3" font-family="Times,serif" font-size="14.00">lamp.@sg.@def</text>
</g>
<!-- o&#45;&gt;s -->
<g id="edge8" class="edge">
<title>o&#45;&gt;s</title>
<path fill="none" stroke="black" d="M312.39,-173.8C312.39,-162.16 312.39,-146.55 312.39,-133.24"/>
<polygon fill="black" stroke="black" points="315.89,-133.18 312.39,-123.18 308.89,-133.18 315.89,-133.18"/>
<text text-anchor="middle" x="323.39" y="-144.8" font-family="Times,serif" font-size="14.00">aoj</text>
</g>
<!-- i -->
<g id="node5" class="node">
<title>i</title>
<ellipse fill="none" stroke="black" cx="591.39" cy="-105" rx="89.88" ry="18"/>
<text text-anchor="middle" x="591.39" y="-101.3" font-family="Times,serif" font-size="14.00">tone.@sg.@indef</text>
</g>
<!-- g&#45;&gt;i -->
<g id="edge4" class="edge">
<title>g&#45;&gt;i</title>
<path fill="none" stroke="black" d="M567.46,-173.8C571.61,-162.05 577.19,-146.24 581.92,-132.84"/>
<polygon fill="black" stroke="black" points="585.3,-133.77 585.33,-123.18 578.7,-131.44 585.3,-133.77"/>
<text text-anchor="middle" x="593.89" y="-144.8" font-family="Times,serif" font-size="14.00">man</text>
</g>
<!-- j -->
<g id="node6" class="node">
<title>j</title>
<ellipse fill="none" stroke="black" cx="601.39" cy="-18" rx="32.49" ry="18"/>
<text text-anchor="middle" x="601.39" y="-14.3" font-family="Times,serif" font-size="14.00">light</text>
</g>
<!-- i&#45;&gt;j -->
<g id="edge5" class="edge">
<title>i&#45;&gt;j</title>
<path fill="none" stroke="black" d="M593.42,-86.8C594.78,-75.16 596.62,-59.55 598.19,-46.24"/>
<polygon fill="black" stroke="black" points="601.68,-46.52 599.37,-36.18 594.73,-45.7 601.68,-46.52"/>
<text text-anchor="middle" x="612.89" y="-57.8" font-family="Times,serif" font-size="14.00">mod</text>
</g>
<!-- n -->
<g id="node8" class="node">
<title>n</title>
<ellipse fill="none" stroke="black" cx="88.39" cy="-18" rx="88.28" ry="18"/>
<text text-anchor="middle" x="88.39" y="-14.3" font-family="Times,serif" font-size="14.00">colour.@sg.@def</text>
</g>
<!-- m&#45;&gt;n -->
<g id="edge7" class="edge">
<title>m&#45;&gt;n</title>
<path fill="none" stroke="black" d="M140.35,-88.01C131.12,-75.75 118.19,-58.57 107.54,-44.43"/>
<polygon fill="black" stroke="black" points="110.07,-41.97 101.25,-36.08 104.47,-46.18 110.07,-41.97"/>
<text text-anchor="middle" x="136.89" y="-57.8" font-family="Times,serif" font-size="14.00">bas</text>
</g>
<!-- r -->
<g id="node10" class="node">
<title>r</title>
<ellipse fill="none" stroke="black" cx="273.39" cy="-18" rx="78.79" ry="18"/>
<text text-anchor="middle" x="273.39" y="-14.3" font-family="Times,serif" font-size="14.00">roof.@sg.@def</text>
</g>
<!-- s&#45;&gt;r -->
<g id="edge9" class="edge">
<title>s&#45;&gt;r</title>
<path fill="none" stroke="black" d="M304.5,-86.8C299.06,-74.93 291.71,-58.93 285.53,-45.45"/>
<polygon fill="black" stroke="black" points="288.62,-43.8 281.27,-36.18 282.26,-46.72 288.62,-43.8"/>
<text text-anchor="middle" x="306.89" y="-57.8" font-family="Times,serif" font-size="14.00">pof</text>
</g>
<!-- t -->
<g id="node11" class="node">
<title>t</title>
<ellipse fill="none" stroke="black" cx="460.39" cy="-18" rx="90.18" ry="18"/>
<text text-anchor="middle" x="460.39" y="-14.3" font-family="Times,serif" font-size="14.00">carpet.@sg.@def</text>
</g>
<!-- s&#45;&gt;t -->
<g id="edge10" class="edge">
<title>s&#45;&gt;t</title>
<path fill="none" stroke="black" d="M340.23,-88.01C363.75,-74.5 397.63,-55.05 423.42,-40.23"/>
<polygon fill="black" stroke="black" points="425.25,-43.22 432.18,-35.21 421.76,-37.15 425.25,-43.22"/>
<text text-anchor="middle" x="408.89" y="-57.8" font-family="Times,serif" font-size="14.00">and</text>
</g>
</g>
</svg>
